<svg width="220" height="40" viewBox="0 0 247 48" fill="none" xmlns="http://www.w3.org/2000/svg">
    <rect width="247" height="48" rx="4" fill="#009FFF"/>
    <path d="M33.75 14.25C30.5808 14.2636 28.2248 14.7 26.52 15.4542C25.2478 16.0167 24.75 16.4423 24.75 17.8842V33C26.6986 31.2422 28.4278 30.75 35.25 30.75V14.25H33.75ZM14.25 14.25C17.4192 14.2636 19.7752 14.7 21.48 15.4542C22.7522 16.0167 23.25 16.4423 23.25 17.8842V33C21.3014 31.2422 19.5722 30.75 12.75 30.75V14.25H14.25Z" fill="white"/>
    <path d="M57.248 15.3195C59.024 15.3195 60.576 15.6635 61.904 16.3515C63.248 17.0235 64.28 17.9995 65 19.2795C65.736 20.5435 66.104 22.0235 66.104 23.7195C66.104 25.4155 65.736 26.8875 65 28.1355C64.28 29.3835 63.248 30.3435 61.904 31.0155C60.576 31.6715 59.024 31.9995 57.248 31.9995H51.8V15.3195H57.248ZM57.248 29.7675C59.2 29.7675 60.696 29.2395 61.736 28.1835C62.776 27.1275 63.296 25.6395 63.296 23.7195C63.296 21.7835 62.776 20.2715 61.736 19.1835C60.696 18.0955 59.2 17.5515 57.248 17.5515H54.536V29.7675H57.248ZM74.5516 32.2155C73.3036 32.2155 72.1756 31.9355 71.1676 31.3755C70.1596 30.7995 69.3676 29.9995 68.7916 28.9755C68.2156 27.9355 67.9276 26.7355 67.9276 25.3755C67.9276 24.0315 68.2236 22.8395 68.8156 21.7995C69.4076 20.7595 70.2156 19.9595 71.2396 19.3995C72.2636 18.8395 73.4076 18.5595 74.6716 18.5595C75.9356 18.5595 77.0796 18.8395 78.1036 19.3995C79.1276 19.9595 79.9356 20.7595 80.5276 21.7995C81.1196 22.8395 81.4156 24.0315 81.4156 25.3755C81.4156 26.7195 81.1116 27.9115 80.5036 28.9515C79.8956 29.9915 79.0636 30.7995 78.0076 31.3755C76.9676 31.9355 75.8156 32.2155 74.5516 32.2155ZM74.5516 29.8395C75.2556 29.8395 75.9116 29.6715 76.5196 29.3355C77.1436 28.9995 77.6476 28.4955 78.0316 27.8235C78.4156 27.1515 78.6076 26.3355 78.6076 25.3755C78.6076 24.4155 78.4236 23.6075 78.0556 22.9515C77.6876 22.2795 77.1996 21.7755 76.5916 21.4395C75.9836 21.1035 75.3276 20.9355 74.6236 20.9355C73.9196 20.9355 73.2636 21.1035 72.6556 21.4395C72.0636 21.7755 71.5916 22.2795 71.2396 22.9515C70.8876 23.6075 70.7116 24.4155 70.7116 25.3755C70.7116 26.7995 71.0716 27.9035 71.7916 28.6875C72.5276 29.4555 73.4476 29.8395 74.5516 29.8395ZM83.2083 25.3755C83.2083 24.0155 83.4803 22.8235 84.0243 21.7995C84.5843 20.7595 85.3523 19.9595 86.3283 19.3995C87.3043 18.8395 88.4243 18.5595 89.6883 18.5595C91.2883 18.5595 92.6083 18.9435 93.6483 19.7115C94.7043 20.4635 95.4163 21.5435 95.7843 22.9515H92.8323C92.5923 22.2955 92.2083 21.7835 91.6803 21.4155C91.1523 21.0475 90.4883 20.8635 89.6883 20.8635C88.5683 20.8635 87.6723 21.2635 87.0003 22.0635C86.3443 22.8475 86.0163 23.9515 86.0163 25.3755C86.0163 26.7995 86.3443 27.9115 87.0003 28.7115C87.6723 29.5115 88.5683 29.9115 89.6883 29.9115C91.2723 29.9115 92.3203 29.2155 92.8323 27.8235H95.7843C95.4003 29.1675 94.6803 30.2395 93.6243 31.0395C92.5683 31.8235 91.2563 32.2155 89.6883 32.2155C88.4243 32.2155 87.3043 31.9355 86.3283 31.3755C85.3523 30.7995 84.5843 29.9995 84.0243 28.9755C83.4803 27.9355 83.2083 26.7355 83.2083 25.3755ZM110.487 18.7755V31.9995H107.751V30.4395C107.319 30.9835 106.751 31.4155 106.047 31.7355C105.359 32.0395 104.623 32.1915 103.839 32.1915C102.799 32.1915 101.863 31.9755 101.031 31.5435C100.215 31.1115 99.5669 30.4715 99.0869 29.6235C98.6229 28.7755 98.3909 27.7515 98.3909 26.5515V18.7755H101.103V26.1435C101.103 27.3275 101.399 28.2395 101.991 28.8795C102.583 29.5035 103.391 29.8155 104.415 29.8155C105.439 29.8155 106.247 29.5035 106.839 28.8795C107.447 28.2395 107.751 27.3275 107.751 26.1435V18.7755H110.487ZM130.105 18.5595C131.145 18.5595 132.073 18.7755 132.889 19.2075C133.721 19.6395 134.369 20.2795 134.833 21.1275C135.313 21.9755 135.553 22.9995 135.553 24.1995V31.9995H132.841V24.6075C132.841 23.4235 132.545 22.5195 131.953 21.8955C131.361 21.2555 130.553 20.9355 129.529 20.9355C128.505 20.9355 127.689 21.2555 127.081 21.8955C126.489 22.5195 126.193 23.4235 126.193 24.6075V31.9995H123.481V24.6075C123.481 23.4235 123.185 22.5195 122.593 21.8955C122.001 21.2555 121.193 20.9355 120.169 20.9355C119.145 20.9355 118.329 21.2555 117.721 21.8955C117.129 22.5195 116.833 23.4235 116.833 24.6075V31.9995H114.097V18.7755H116.833V20.2875C117.281 19.7435 117.849 19.3195 118.537 19.0155C119.225 18.7115 119.961 18.5595 120.745 18.5595C121.801 18.5595 122.745 18.7835 123.577 19.2315C124.409 19.6795 125.049 20.3275 125.497 21.1755C125.897 20.3755 126.521 19.7435 127.369 19.2795C128.217 18.7995 129.129 18.5595 130.105 18.5595ZM151.154 25.0635C151.154 25.5595 151.122 26.0075 151.058 26.4075H140.954C141.034 27.4635 141.426 28.3115 142.13 28.9515C142.834 29.5915 143.698 29.9115 144.722 29.9115C146.194 29.9115 147.234 29.2955 147.842 28.0635H150.794C150.394 29.2795 149.666 30.2795 148.61 31.0635C147.57 31.8315 146.274 32.2155 144.722 32.2155C143.458 32.2155 142.322 31.9355 141.314 31.3755C140.322 30.7995 139.538 29.9995 138.962 28.9755C138.402 27.9355 138.122 26.7355 138.122 25.3755C138.122 24.0155 138.394 22.8235 138.938 21.7995C139.498 20.7595 140.274 19.9595 141.266 19.3995C142.274 18.8395 143.426 18.5595 144.722 18.5595C145.97 18.5595 147.082 18.8315 148.058 19.3755C149.034 19.9195 149.794 20.6875 150.338 21.6795C150.882 22.6555 151.154 23.7835 151.154 25.0635ZM148.298 24.1995C148.282 23.1915 147.922 22.3835 147.218 21.7755C146.514 21.1675 145.642 20.8635 144.602 20.8635C143.658 20.8635 142.85 21.1675 142.178 21.7755C141.506 22.3675 141.106 23.1755 140.978 24.1995H148.298ZM160.519 18.5595C161.559 18.5595 162.487 18.7755 163.303 19.2075C164.135 19.6395 164.783 20.2795 165.247 21.1275C165.711 21.9755 165.943 22.9995 165.943 24.1995V31.9995H163.231V24.6075C163.231 23.4235 162.935 22.5195 162.343 21.8955C161.751 21.2555 160.943 20.9355 159.919 20.9355C158.895 20.9355 158.079 21.2555 157.471 21.8955C156.879 22.5195 156.583 23.4235 156.583 24.6075V31.9995H153.847V18.7755H156.583V20.2875C157.031 19.7435 157.599 19.3195 158.287 19.0155C158.991 18.7115 159.735 18.5595 160.519 18.5595ZM172.625 21.0075V28.3275C172.625 28.8235 172.737 29.1835 172.961 29.4075C173.201 29.6155 173.601 29.7195 174.161 29.7195H175.841V31.9995H173.681C172.449 31.9995 171.505 31.7115 170.849 31.1355C170.193 30.5595 169.865 29.6235 169.865 28.3275V21.0075H168.305V18.7755H169.865V15.4875H172.625V18.7755H175.841V21.0075H172.625ZM177.451 25.3275C177.451 23.9995 177.723 22.8235 178.267 21.7995C178.827 20.7755 179.579 19.9835 180.523 19.4235C181.483 18.8475 182.539 18.5595 183.691 18.5595C184.731 18.5595 185.635 18.7675 186.403 19.1835C187.187 19.5835 187.811 20.0875 188.275 20.6955V18.7755H191.035V31.9995H188.275V30.0315C187.811 30.6555 187.179 31.1755 186.379 31.5915C185.579 32.0075 184.667 32.2155 183.643 32.2155C182.507 32.2155 181.467 31.9275 180.523 31.3515C179.579 30.7595 178.827 29.9435 178.267 28.9035C177.723 27.8475 177.451 26.6555 177.451 25.3275ZM188.275 25.3755C188.275 24.4635 188.083 23.6715 187.699 22.9995C187.331 22.3275 186.843 21.8155 186.235 21.4635C185.627 21.1115 184.971 20.9355 184.267 20.9355C183.563 20.9355 182.907 21.1115 182.299 21.4635C181.691 21.7995 181.195 22.3035 180.811 22.9755C180.443 23.6315 180.259 24.4155 180.259 25.3275C180.259 26.2395 180.443 27.0395 180.811 27.7275C181.195 28.4155 181.691 28.9435 182.299 29.3115C182.923 29.6635 183.579 29.8395 184.267 29.8395C184.971 29.8395 185.627 29.6635 186.235 29.3115C186.843 28.9595 187.331 28.4475 187.699 27.7755C188.083 27.0875 188.275 26.2875 188.275 25.3755ZM197.82 21.0075V28.3275C197.82 28.8235 197.932 29.1835 198.156 29.4075C198.396 29.6155 198.796 29.7195 199.356 29.7195H201.036V31.9995H198.876C197.644 31.9995 196.7 31.7115 196.044 31.1355C195.388 30.5595 195.06 29.6235 195.06 28.3275V21.0075H193.5V18.7755H195.06V15.4875H197.82V18.7755H201.036V21.0075H197.82ZM204.95 17.0235C204.454 17.0235 204.038 16.8555 203.702 16.5195C203.366 16.1835 203.198 15.7675 203.198 15.2715C203.198 14.7755 203.366 14.3595 203.702 14.0235C204.038 13.6875 204.454 13.5195 204.95 13.5195C205.43 13.5195 205.838 13.6875 206.174 14.0235C206.51 14.3595 206.678 14.7755 206.678 15.2715C206.678 15.7675 206.51 16.1835 206.174 16.5195C205.838 16.8555 205.43 17.0235 204.95 17.0235ZM206.294 18.7755V31.9995H203.558V18.7755H206.294ZM215.622 32.2155C214.374 32.2155 213.246 31.9355 212.238 31.3755C211.23 30.7995 210.438 29.9995 209.862 28.9755C209.286 27.9355 208.998 26.7355 208.998 25.3755C208.998 24.0315 209.294 22.8395 209.886 21.7995C210.478 20.7595 211.286 19.9595 212.31 19.3995C213.334 18.8395 214.478 18.5595 215.742 18.5595C217.006 18.5595 218.15 18.8395 219.174 19.3995C220.198 19.9595 221.006 20.7595 221.598 21.7995C222.19 22.8395 222.486 24.0315 222.486 25.3755C222.486 26.7195 222.182 27.9115 221.574 28.9515C220.966 29.9915 220.134 30.7995 219.078 31.3755C218.038 31.9355 216.886 32.2155 215.622 32.2155ZM215.622 29.8395C216.326 29.8395 216.982 29.6715 217.59 29.3355C218.214 28.9995 218.718 28.4955 219.102 27.8235C219.486 27.1515 219.678 26.3355 219.678 25.3755C219.678 24.4155 219.494 23.6075 219.126 22.9515C218.758 22.2795 218.27 21.7755 217.662 21.4395C217.054 21.1035 216.398 20.9355 215.694 20.9355C214.99 20.9355 214.334 21.1035 213.726 21.4395C213.134 21.7755 212.662 22.2795 212.31 22.9515C211.958 23.6075 211.782 24.4155 211.782 25.3755C211.782 26.7995 212.142 27.9035 212.862 28.6875C213.598 29.4555 214.518 29.8395 215.622 29.8395ZM231.863 18.5595C232.903 18.5595 233.831 18.7755 234.647 19.2075C235.479 19.6395 236.127 20.2795 236.591 21.1275C237.055 21.9755 237.287 22.9995 237.287 24.1995V31.9995H234.575V24.6075C234.575 23.4235 234.279 22.5195 233.687 21.8955C233.095 21.2555 232.287 20.9355 231.263 20.9355C230.239 20.9355 229.423 21.2555 228.815 21.8955C228.223 22.5195 227.927 23.4235 227.927 24.6075V31.9995H225.191V18.7755H227.927V20.2875C228.375 19.7435 228.943 19.3195 229.631 19.0155C230.335 18.7115 231.079 18.5595 231.863 18.5595Z" fill="white"/>
    <rect x="50" y="35.9995" width="108" height="0.001" fill="white"/>
    </svg>